

                Rychly Prachy (PRAHA - 05.11.2012) - Eva

  Without advertising!

Screen:
 
http://image.bayimg.com/431d5db065cbc7771a50cfaa3649e8e19a01c80d.jpg


Oficial website:
 
http://rychlyprachy.cz


Direct Link:
 
http://rychlyprachy.cz/video62.cz.html



General
Complete name                            : Rychly Prachy (PRHA - 02.12.212) - Andrea.wmv
Format                                   : Windows Media
File size                                : 521 MiB
Duration                                 : 23mn 2s
Overall bit rate mode                    : Constant
Overall bit rate                         : 3 161 Kbps
Maximum Overall bit rate                 : 3 173 Kbps
Encoded date                             : UTC 2012-12-02 01:41:37.953
SfOriginalFPS                            : 300000

Video
ID                                       : 2
Format                                   : VC-1
Format profile                           : MP@ML
Codec ID                                 : WMV3
Codec ID/Info                            : Windows Media Video 9
Codec ID/Hint                            : WMV3
Description of the codec                 : Windows Media Video 9 - Professional
Duration                                 : 23mn 2s
Bit rate mode                            : Constant
Bit rate                                 : 3 050 Kbps
Width                                    : 640 pixels
Height                                   : 480 pixels
Display aspect ratio                     : 4:3
Frame rate                               : 30.000 fps
Bit depth                                : 8 bits
Scan type                                : Progressive
Compression mode                         : Lossy
Bits/(Pixel*Frame)                       : 0.331
Stream size                              : 503 MiB (96%)
Language                                 : Czech

Audio
ID                                       : 1
Format                                   : WMA
Format version                           : Version 2
Codec ID                                 : 161
Codec ID/Info                            : Windows Media Audio
Description of the codec                 : Windows Media Audio 9.2 -  96 kbps, 44 kHz, stereo (A/V) 1-pass CBR
Duration                                 : 23mn 2s
Bit rate mode                            : Constant
Bit rate                                 : 96.0 Kbps
Channel(s)                               : 2 channels
Sampling rate                            : 44.1 KHz
Bit depth                                : 16 bits
Stream size                              : 15.8 MiB (3%)
Language                                 : Czech